<mxfile host="65bd71144e">
    <diagram id="ZRKblawVNR6-OOASddI8" name="PÃ¡gina-1">
        <mxGraphModel dx="1626" dy="773" grid="1" gridSize="10" guides="1" tooltips="1" connect="1" arrows="1" fold="1" page="1" pageScale="1" pageWidth="1169" pageHeight="827" math="0" shadow="0">
            <root>
                <mxCell id="0"/>
                <mxCell id="1" parent="0"/>
                <mxCell id="2" value="auth_user" style="rounded=1;arcSize=10;whiteSpace=wrap;html=1;align=center;fillColor=#dae8fc;strokeColor=#6c8ebf;" parent="1" vertex="1">
                    <mxGeometry x="400" y="320" width="120" height="40" as="geometry"/>
                </mxCell>
                <mxCell id="3" value="" style="shape=rhombus;perimeter=rhombusPerimeter;whiteSpace=wrap;html=1;align=center;" parent="1" vertex="1">
                    <mxGeometry x="280" y="160" width="40" height="40" as="geometry"/>
                </mxCell>
                <mxCell id="16" value="auth_permission" style="rounded=1;arcSize=10;whiteSpace=wrap;html=1;align=center;fillColor=#dae8fc;strokeColor=#6c8ebf;" parent="1" vertex="1">
                    <mxGeometry x="400" y="160" width="120" height="40" as="geometry"/>
                </mxCell>
                <mxCell id="25" value="auth_group" style="rounded=1;arcSize=10;whiteSpace=wrap;html=1;align=center;fillColor=#dae8fc;strokeColor=#6c8ebf;" parent="1" vertex="1">
                    <mxGeometry x="80" y="160" width="120" height="40" as="geometry"/>
                </mxCell>
                <mxCell id="33" value="" style="endArrow=none;html=1;rounded=0;shadow=0;labelBackgroundColor=none;labelBorderColor=none;sketch=0;" parent="1" source="3" target="25" edge="1">
                    <mxGeometry relative="1" as="geometry">
                        <mxPoint x="440" y="380" as="sourcePoint"/>
                        <mxPoint x="520" y="440" as="targetPoint"/>
                    </mxGeometry>
                </mxCell>
                <mxCell id="34" value="N" style="resizable=0;html=1;align=right;verticalAlign=bottom;rounded=0;shadow=0;labelBorderColor=none;sketch=0;" parent="33" connectable="0" vertex="1">
                    <mxGeometry x="1" relative="1" as="geometry">
                        <mxPoint x="11" y="3" as="offset"/>
                    </mxGeometry>
                </mxCell>
                <mxCell id="45" value="" style="endArrow=none;html=1;rounded=0;shadow=0;labelBackgroundColor=none;labelBorderColor=none;sketch=0;align=center;verticalAlign=top;" parent="1" source="3" target="16" edge="1">
                    <mxGeometry relative="1" as="geometry">
                        <mxPoint x="570" y="330" as="sourcePoint"/>
                        <mxPoint x="650" y="430" as="targetPoint"/>
                    </mxGeometry>
                </mxCell>
                <mxCell id="46" value="N" style="resizable=0;html=1;align=right;verticalAlign=bottom;rounded=0;shadow=0;labelBorderColor=none;sketch=0;" parent="45" connectable="0" vertex="1">
                    <mxGeometry x="1" relative="1" as="geometry">
                        <mxPoint y="3" as="offset"/>
                    </mxGeometry>
                </mxCell>
                <mxCell id="57" value="" style="shape=rhombus;perimeter=rhombusPerimeter;whiteSpace=wrap;html=1;align=center;" vertex="1" parent="1">
                    <mxGeometry x="440" y="240" width="40" height="40" as="geometry"/>
                </mxCell>
                <mxCell id="58" value="" style="endArrow=none;html=1;rounded=0;shadow=0;labelBackgroundColor=none;labelBorderColor=none;sketch=0;align=center;verticalAlign=top;" edge="1" parent="1" source="57" target="16">
                    <mxGeometry relative="1" as="geometry">
                        <mxPoint x="290" y="190" as="sourcePoint"/>
                        <mxPoint x="330" y="190" as="targetPoint"/>
                    </mxGeometry>
                </mxCell>
                <mxCell id="59" value="N" style="resizable=0;html=1;align=right;verticalAlign=bottom;rounded=0;shadow=0;labelBorderColor=none;sketch=0;" connectable="0" vertex="1" parent="58">
                    <mxGeometry x="1" relative="1" as="geometry">
                        <mxPoint y="15" as="offset"/>
                    </mxGeometry>
                </mxCell>
                <mxCell id="60" value="" style="endArrow=none;html=1;rounded=0;shadow=0;labelBackgroundColor=none;labelBorderColor=none;sketch=0;align=center;verticalAlign=top;" edge="1" parent="1" source="57" target="2">
                    <mxGeometry relative="1" as="geometry">
                        <mxPoint x="300" y="200" as="sourcePoint"/>
                        <mxPoint x="340" y="200" as="targetPoint"/>
                    </mxGeometry>
                </mxCell>
                <mxCell id="61" value="N" style="resizable=0;html=1;align=right;verticalAlign=bottom;rounded=0;shadow=0;labelBorderColor=none;sketch=0;" connectable="0" vertex="1" parent="60">
                    <mxGeometry x="1" relative="1" as="geometry">
                        <mxPoint y="3" as="offset"/>
                    </mxGeometry>
                </mxCell>
                <mxCell id="62" value="" style="shape=rhombus;perimeter=rhombusPerimeter;whiteSpace=wrap;html=1;align=center;" vertex="1" parent="1">
                    <mxGeometry x="120" y="320" width="40" height="40" as="geometry"/>
                </mxCell>
                <mxCell id="63" value="" style="endArrow=none;html=1;rounded=0;shadow=0;labelBackgroundColor=none;labelBorderColor=none;sketch=0;align=center;verticalAlign=top;" edge="1" parent="1" source="62" target="25">
                    <mxGeometry relative="1" as="geometry">
                        <mxPoint x="389.9999999999999" y="250.0000000000001" as="sourcePoint"/>
                        <mxPoint x="390.0000000000001" y="210" as="targetPoint"/>
                    </mxGeometry>
                </mxCell>
                <mxCell id="64" value="N" style="resizable=0;html=1;align=right;verticalAlign=bottom;rounded=0;shadow=0;labelBorderColor=none;sketch=0;" connectable="0" vertex="1" parent="63">
                    <mxGeometry x="1" relative="1" as="geometry">
                        <mxPoint y="15" as="offset"/>
                    </mxGeometry>
                </mxCell>
                <mxCell id="65" value="" style="endArrow=none;html=1;rounded=0;shadow=0;labelBackgroundColor=none;labelBorderColor=none;sketch=0;align=center;verticalAlign=top;" edge="1" parent="1" source="62" target="2">
                    <mxGeometry relative="1" as="geometry">
                        <mxPoint x="290" y="190" as="sourcePoint"/>
                        <mxPoint x="330" y="190" as="targetPoint"/>
                    </mxGeometry>
                </mxCell>
                <mxCell id="66" value="N" style="resizable=0;html=1;align=right;verticalAlign=bottom;rounded=0;shadow=0;labelBorderColor=none;sketch=0;" connectable="0" vertex="1" parent="65">
                    <mxGeometry x="1" relative="1" as="geometry">
                        <mxPoint y="3" as="offset"/>
                    </mxGeometry>
                </mxCell>
                <mxCell id="67" value="auth_group_permissions" style="text;html=1;strokeColor=none;fillColor=none;align=center;verticalAlign=middle;whiteSpace=wrap;rounded=0;" vertex="1" parent="1">
                    <mxGeometry x="270" y="190" width="60" height="30" as="geometry"/>
                </mxCell>
                <mxCell id="68" value="auth_user_user_permissions" style="text;html=1;strokeColor=none;fillColor=none;align=center;verticalAlign=middle;whiteSpace=wrap;rounded=0;" vertex="1" parent="1">
                    <mxGeometry x="520" y="260" width="60" height="30" as="geometry"/>
                </mxCell>
                <mxCell id="71" value="auth_user_groups" style="text;html=1;strokeColor=none;fillColor=none;align=center;verticalAlign=middle;whiteSpace=wrap;rounded=0;" vertex="1" parent="1">
                    <mxGeometry x="180" y="340" width="60" height="30" as="geometry"/>
                </mxCell>
                <mxCell id="72" value="django_admin_log" style="rounded=1;arcSize=10;whiteSpace=wrap;html=1;align=center;" vertex="1" parent="1">
                    <mxGeometry x="720" y="320" width="120" height="40" as="geometry"/>
                </mxCell>
                <mxCell id="73" value="django_content_type" style="rounded=1;arcSize=10;whiteSpace=wrap;html=1;align=center;" vertex="1" parent="1">
                    <mxGeometry x="720" y="160" width="120" height="40" as="geometry"/>
                </mxCell>
                <mxCell id="74" value="" style="shape=rhombus;perimeter=rhombusPerimeter;whiteSpace=wrap;html=1;align=center;" vertex="1" parent="1">
                    <mxGeometry x="600" y="160" width="40" height="40" as="geometry"/>
                </mxCell>
                <mxCell id="75" value="" style="shape=rhombus;perimeter=rhombusPerimeter;whiteSpace=wrap;html=1;align=center;" vertex="1" parent="1">
                    <mxGeometry x="600" y="320" width="40" height="40" as="geometry"/>
                </mxCell>
                <mxCell id="76" value="" style="shape=rhombus;perimeter=rhombusPerimeter;whiteSpace=wrap;html=1;align=center;" vertex="1" parent="1">
                    <mxGeometry x="760" y="240" width="40" height="40" as="geometry"/>
                </mxCell>
                <mxCell id="77" value="" style="endArrow=none;html=1;rounded=0;shadow=0;labelBackgroundColor=none;labelBorderColor=none;sketch=0;" edge="1" parent="1" source="74" target="16">
                    <mxGeometry relative="1" as="geometry">
                        <mxPoint x="290" y="190" as="sourcePoint"/>
                        <mxPoint x="210" y="190" as="targetPoint"/>
                    </mxGeometry>
                </mxCell>
                <mxCell id="78" value="N" style="resizable=0;html=1;align=right;verticalAlign=bottom;rounded=0;shadow=0;labelBorderColor=none;sketch=0;" connectable="0" vertex="1" parent="77">
                    <mxGeometry x="1" relative="1" as="geometry">
                        <mxPoint x="11" y="3" as="offset"/>
                    </mxGeometry>
                </mxCell>
                <mxCell id="79" value="" style="endArrow=none;html=1;rounded=0;shadow=0;labelBackgroundColor=none;labelBorderColor=none;sketch=0;" edge="1" parent="1" source="75" target="2">
                    <mxGeometry relative="1" as="geometry">
                        <mxPoint x="610" y="190" as="sourcePoint"/>
                        <mxPoint x="530" y="190" as="targetPoint"/>
                    </mxGeometry>
                </mxCell>
                <mxCell id="80" value="N" style="resizable=0;html=1;align=right;verticalAlign=bottom;rounded=0;shadow=0;labelBorderColor=none;sketch=0;" connectable="0" vertex="1" parent="79">
                    <mxGeometry x="1" relative="1" as="geometry">
                        <mxPoint x="11" y="3" as="offset"/>
                    </mxGeometry>
                </mxCell>
                <mxCell id="81" value="" style="endArrow=none;html=1;rounded=0;shadow=0;labelBackgroundColor=none;labelBorderColor=none;sketch=0;align=center;verticalAlign=top;" edge="1" parent="1" source="74" target="73">
                    <mxGeometry relative="1" as="geometry">
                        <mxPoint x="330" y="190" as="sourcePoint"/>
                        <mxPoint x="410" y="190" as="targetPoint"/>
                    </mxGeometry>
                </mxCell>
                <mxCell id="82" value="1" style="resizable=0;html=1;align=right;verticalAlign=bottom;rounded=0;shadow=0;labelBorderColor=none;sketch=0;" connectable="0" vertex="1" parent="81">
                    <mxGeometry x="1" relative="1" as="geometry">
                        <mxPoint y="3" as="offset"/>
                    </mxGeometry>
                </mxCell>
                <mxCell id="83" value="" style="endArrow=none;html=1;rounded=0;shadow=0;labelBackgroundColor=none;labelBorderColor=none;sketch=0;align=center;verticalAlign=top;" edge="1" parent="1" source="75" target="72">
                    <mxGeometry relative="1" as="geometry">
                        <mxPoint x="650" y="190" as="sourcePoint"/>
                        <mxPoint x="730" y="190" as="targetPoint"/>
                    </mxGeometry>
                </mxCell>
                <mxCell id="84" value="1" style="resizable=0;html=1;align=right;verticalAlign=bottom;rounded=0;shadow=0;labelBorderColor=none;sketch=0;" connectable="0" vertex="1" parent="83">
                    <mxGeometry x="1" relative="1" as="geometry">
                        <mxPoint y="3" as="offset"/>
                    </mxGeometry>
                </mxCell>
                <mxCell id="85" value="" style="endArrow=none;html=1;rounded=0;shadow=0;labelBackgroundColor=none;labelBorderColor=none;sketch=0;align=center;verticalAlign=top;" edge="1" parent="1" source="76" target="72">
                    <mxGeometry relative="1" as="geometry">
                        <mxPoint x="470" y="290" as="sourcePoint"/>
                        <mxPoint x="470" y="330" as="targetPoint"/>
                    </mxGeometry>
                </mxCell>
                <mxCell id="86" value="N" style="resizable=0;html=1;align=right;verticalAlign=bottom;rounded=0;shadow=0;labelBorderColor=none;sketch=0;" connectable="0" vertex="1" parent="85">
                    <mxGeometry x="1" relative="1" as="geometry">
                        <mxPoint y="3" as="offset"/>
                    </mxGeometry>
                </mxCell>
                <mxCell id="87" value="" style="endArrow=none;html=1;rounded=0;shadow=0;labelBackgroundColor=none;labelBorderColor=none;sketch=0;align=center;verticalAlign=top;" edge="1" parent="1" source="76" target="73">
                    <mxGeometry relative="1" as="geometry">
                        <mxPoint x="470" y="250" as="sourcePoint"/>
                        <mxPoint x="470" y="210" as="targetPoint"/>
                    </mxGeometry>
                </mxCell>
                <mxCell id="88" value="1" style="resizable=0;html=1;align=right;verticalAlign=bottom;rounded=0;shadow=0;labelBorderColor=none;sketch=0;" connectable="0" vertex="1" parent="87">
                    <mxGeometry x="1" relative="1" as="geometry">
                        <mxPoint y="15" as="offset"/>
                    </mxGeometry>
                </mxCell>
            </root>
        </mxGraphModel>
    </diagram>
</mxfile>